<svg xmlns="http://www.w3.org/2000/svg" xmlns:xlink="http://www.w3.org/1999/xlink" width="500" zoomAndPan="magnify" viewBox="0 0 375 374.999991" height="500" preserveAspectRatio="xMidYMid meet" version="1.0"><defs><clipPath id="f74c8d67ff"><path d="M 8.300781 8.300781 L 366.800781 8.300781 L 366.800781 366.800781 L 8.300781 366.800781 Z M 8.300781 8.300781 " clip-rule="nonzero"/></clipPath></defs><g clip-path="url(#f74c8d67ff)"><path fill="#f9447f" d="M 187.496094 366.695312 C 88.71875 366.695312 8.300781 286.277344 8.300781 187.496094 C 8.300781 88.71875 88.71875 8.300781 187.496094 8.300781 C 286.277344 8.300781 366.695312 88.71875 366.695312 187.496094 C 366.695312 286.277344 286.277344 366.695312 187.496094 366.695312 Z M 187.496094 10.949219 C 90.132812 10.949219 10.949219 90.132812 10.949219 187.496094 C 10.949219 284.863281 90.132812 364.046875 187.496094 364.046875 C 284.863281 364.046875 364.046875 284.863281 364.046875 187.496094 C 364.046875 90.132812 284.863281 10.949219 187.496094 10.949219 Z M 187.496094 10.949219 " fill-opacity="1" fill-rule="nonzero"/></g></svg>