<svg width="191" height="120" viewBox="0 0 191 120" xmlns="http://www.w3.org/2000/svg"><g fill="none" fill-rule="evenodd"><path d="M38.553 113.228c1.533 0 2.102 1.19 2.102 2.463 0 1.313-.65 2.596-2.16 2.606a2.087 2.087 0 01-1.522-.646V120h-.94v-6.638h.94v.564c.477-.492.86-.698 1.58-.698zm57.752 0c1.533 0 2.102 1.19 2.102 2.463 0 1.313-.65 2.596-2.16 2.606a2.087 2.087 0 01-1.521-.646V120h-.941v-6.638h.94v.564c.477-.492.86-.698 1.58-.698zM5.21 110.962v.728c-.372.123-1.173.287-1.882.38-.847.113-1.916.574-1.916 1.538v.903c.29-.615 1.01-.923 1.812-.923 1.405 0 2.323.923 2.323 2.185 0 1.436-.883 2.524-2.497 2.524-1.557 0-2.462-.75-2.462-2.114v-2.636c0-1.19.778-1.96 2.357-2.165a30.446 30.446 0 002.265-.42zm40.426 2.267c1.242 0 2.125.687 2.241 1.785h-.952c-.174-.688-.604-1.036-1.29-1.036-1.091 0-1.497.8-1.497 1.713 0 1.22.499 1.837 1.498 1.837.65 0 1.08-.37 1.29-1.108h.951c-.07 1.087-.964 1.877-2.241 1.877-1.673 0-2.509-1.005-2.509-2.452 0-1.488.778-2.616 2.509-2.616zm133.33.133v3.047c0 .4.071.698.244.872.151.164.419.247.802.247.476 0 .848-.175 1.115-.524.21-.277.326-.687.326-1.21v-2.432h.929v4.791h-.93v-.749c-.29.595-.847.893-1.66.893-1.185 0-1.766-.616-1.766-1.857v-3.078h.94zM59.27 113.23c1.243 0 2.08.37 2.08 1.518v2.288c0 .339.093.513.313.513.116 0 .22-.031.337-.082v.656c-.22.113-.43.175-.639.175-.51 0-.801-.267-.87-.79-.57.523-1.186.79-1.87.79-1.023 0-1.743-.544-1.743-1.457 0-.472.22-.83.639-1.087.58-.36 1.637-.483 2.903-.575v-.287c0-.636-.406-.954-1.196-.954-.813 0-1.208.297-1.208.913H57.1c0-1.098.917-1.621 2.171-1.621zm19.72 0c1.672 0 2.37 1.046 2.37 2.4v.39h-3.915c.07 1.006.57 1.508 1.498 1.508.755 0 1.208-.318 1.371-.943h.975c-.232 1.036-1.173 1.713-2.369 1.713-1.66 0-2.485-1.118-2.485-2.534 0-1.426.882-2.534 2.555-2.534zm-69.401.133v1.477c.406-.236.801-.359 1.208-.359 1.207 0 2.055.708 2.055 1.775 0 1.252-.696 2.042-2.16 2.042-1.347 0-2.032-.575-2.032-1.713V114.1H7.475v-.739H9.59zm133.123-.133c1.673 0 2.463 1.097 2.463 2.534 0 1.405-.814 2.534-2.463 2.534-1.65 0-2.462-1.077-2.462-2.534 0-1.437.766-2.534 2.462-2.534zm-18.64 0c1.244 0 2.08.37 2.08 1.518v2.288c0 .339.093.513.314.513.115 0 .22-.031.336-.082v.656c-.22.113-.43.175-.638.175-.512 0-.802-.267-.872-.79-.569.523-1.184.79-1.87.79-1.022 0-1.742-.544-1.742-1.457 0-.472.22-.83.64-1.087.58-.36 1.637-.483 2.903-.575v-.287c0-.636-.407-.954-1.197-.954-.813 0-1.208.297-1.208.913h-.917c0-1.098.917-1.621 2.171-1.621zm-93.173 0c1.243 0 2.08.37 2.08 1.518v2.288c0 .339.093.513.313.513.116 0 .22-.031.337-.082v.656c-.22.113-.43.175-.639.175-.511 0-.801-.267-.871-.79-.57.523-1.185.79-1.87.79-1.022 0-1.742-.544-1.742-1.457 0-.472.22-.83.639-1.087.58-.36 1.637-.483 2.903-.575v-.287c0-.636-.406-.954-1.196-.954-.813 0-1.208.297-1.208.913h-.917c0-1.098.917-1.621 2.171-1.621zm134.69 0c1.244 0 2.08.37 2.08 1.518v2.288c0 .339.093.513.314.513.115 0 .22-.031.336-.082v.656c-.22.113-.43.175-.638.175-.512 0-.802-.267-.872-.79-.569.523-1.184.79-1.87.79-1.022 0-1.742-.544-1.742-1.457 0-.472.22-.83.64-1.087.58-.36 1.637-.483 2.903-.575v-.287c0-.636-.407-.954-1.197-.954-.813 0-1.208.297-1.208.913h-.917c0-1.098.917-1.621 2.171-1.621zm-141.518 0c1.324 0 1.998.41 1.998 1.22 0 .944-.837 1.242-1.894 1.53-.778.214-1.254.358-1.254.923 0 .43.372.636 1.127.636.801 0 1.103-.267 1.126-.954h.988c0 1.138-.72 1.713-2.16 1.713-1.43 0-2.15-.493-2.15-1.457 0-.923 1.011-1.262 2.021-1.518.628-.154 1.162-.308 1.162-.8 0-.319-.383-.554-.953-.554-.778 0-1.16.256-1.184.78h-.952c0-1.006 1.045-1.52 2.125-1.52zm79.156 0c1.672 0 2.462 1.097 2.462 2.534 0 1.405-.813 2.534-2.462 2.534-1.65 0-2.463-1.077-2.463-2.534 0-1.437.767-2.534 2.463-2.534zm-31.24 0c.685 0 1.37.297 1.614.862.07.225.117.564.117 1.005v3.057h-.93v-2.893c0-.81-.197-1.282-1.091-1.282-.57 0-1.092.307-1.278.77-.058.143-.081.44-.081.881v2.524h-.93v-4.79h.93v.615c.476-.534.917-.75 1.649-.75zm117.108.133v4.791h-.953v-1.734h-1.034l-1.01 1.734h-1.185l1.36-1.939c-.686-.267-1.023-.718-1.023-1.364 0-1.026 1.01-1.488 2.15-1.488h1.695zm-78.61 0l2.067 4.791h-1.045l-1.579-3.806-1.51 3.806h-1.046l2.068-4.79h1.045zm-92.534 0l2.067 4.791h-1.045l-1.58-3.806-1.51 3.806h-1.045l2.067-4.79h1.046zm131.113 0l1.486 3.753 1.488-3.753h1.498v4.791h-.94v-4.083l-.106.308-1.52 3.775h-.848l-1.627-4.083v4.083h-.94v-4.79h1.51zm-59.634-.133c1.104 0 1.638.564 1.638 1.662v3.262h-.93v-3.119c0-.697-.301-1.056-.917-1.056-.5 0-.976.267-1.138.697-.07.195-.116.513-.116.923v2.555h-.929v-3.026c0-.708-.093-1.15-.825-1.15-.604 0-1.022.257-1.243.79-.07.144-.104.421-.104.811v2.575h-.929v-4.79h.929v.584c.476-.43.848-.718 1.58-.718.58 0 1.033.246 1.37.718.441-.441.871-.718 1.614-.718zm-37.952-1.642v3.888l2.114-2.113h1.231l-2.08 1.94 2.23 2.851h-1.149l-1.754-2.236-.592.492v1.744h-.93v-6.566h.93zm83.627 0v3.888l2.114-2.113h1.231l-2.079 1.94 2.23 2.851h-1.15l-1.754-2.236-.592.492v1.744h-.929v-6.566h.93zm23.912 1.642c.685 0 1.37.297 1.615.862.07.225.116.564.116 1.005v3.057h-.93v-2.893c0-.81-.197-1.282-1.09-1.282-.57 0-1.093.307-1.279.77-.057.143-.081.44-.081.881v2.524h-.929v-4.79h.929v.615c.476-.534.917-.75 1.65-.75zm-43.353.133v1.96h2.486v-1.96h.93v4.791h-.93v-2.134h-2.486v2.134h-.929v-4.791h.93zm56.034 0v1.96h2.486v-1.96h.929v4.791h-.93v-2.134h-2.485v2.134h-.93v-4.791h.93zM10.82 115.229c-.418 0-.813.082-1.231.277v1.16c0 .594.395.892 1.161.892.732 0 1.127-.533 1.127-1.138 0-.585-.348-1.19-1.057-1.19zm49.6.534c-.975.103-1.637.215-2.009.36-.371.143-.558.378-.558.707 0 .482.326.718 1 .718.731 0 1.533-.41 1.567-1.128v-.657zm106.32 0c-.976.103-1.638.215-2.01.36-.371.143-.557.378-.557.707 0 .482.325.718.999.718.731 0 1.533-.41 1.568-1.128v-.657zm-134.69 0c-.976.103-1.638.215-2.01.36-.371.143-.558.378-.558.707 0 .482.325.718 1 .718.731 0 1.532-.41 1.567-1.128v-.657zm93.173 0c-.976.103-1.638.215-2.01.36-.371.143-.557.378-.557.707 0 .482.325.718.999.718.731 0 1.533-.41 1.568-1.128v-.657zm-29.162-1.785c-.859 0-1.37.667-1.37 1.785 0 .862.313 1.765 1.37 1.765 1.046 0 1.371-.913 1.371-1.765 0-.903-.36-1.785-1.37-1.785zm46.651 0c-.94 0-1.463.656-1.463 1.785 0 1.108.522 1.764 1.463 1.764.93 0 1.464-.656 1.464-1.815 0-.883-.407-1.734-1.464-1.734zm-104.403 0c-.86 0-1.37.667-1.37 1.785 0 .862.313 1.765 1.37 1.765 1.045 0 1.37-.913 1.37-1.765 0-.903-.36-1.785-1.37-1.785zm64.918 0c-.941 0-1.464.656-1.464 1.785 0 1.108.523 1.764 1.464 1.764.929 0 1.463-.656 1.463-1.815 0-.883-.406-1.734-1.463-1.734zm-100.176.37c-.988 0-1.522.656-1.522 1.507 0 1.036.488 1.662 1.475 1.662.964 0 1.557-.708 1.557-1.58 0-.893-.453-1.59-1.51-1.59zm185.091-.227h-.952c-.51 0-.941.35-.941.831 0 .462.43.79.94.79h.953v-1.62zm-109.175-.143c-.883 0-1.394.43-1.499 1.303h2.939c-.07-.821-.593-1.303-1.44-1.303zm83.772-29.013v21.813h-8.523V84.965h8.523zm-17.968 0c1.614 0 2.991.557 4.124 1.673 1.141 1.116 1.707 2.471 1.707 4.063v10.344c0 1.591-.566 2.944-1.707 4.061-1.133 1.114-2.51 1.672-4.124 1.672h-20.486c-1.591 0-2.95-.558-4.07-1.672-1.13-1.117-1.688-2.47-1.688-4.061V90.7c0-1.592.558-2.947 1.687-4.063 1.12-1.116 2.48-1.673 4.07-1.673h20.487zm-136.253 0v21.813H0V84.965h8.518zm36.176-.2v16.078c0 1.591-.578 3.338-1.702 4.453-1.126 1.116-2.33 1.482-4.038 1.482-1.703 0-3.483-1.039-4.492-1.854-.321-.26-3-2.575-5.948-5.13l-.48-.416-.241-.209-.586-.508-.23-.2-.457-.396c-3.27-2.835-6.301-5.469-6.301-5.469l.028 14.182H11.93V90.7c0-1.592.583-3.338 1.708-4.455 1.122-1.114 2.326-1.48 4.035-1.48 1.702 0 3.481 1.036 4.493 1.854.309.249.898.746 1.666 1.404l.61.522c1.136.976 2.55 2.198 4.001 3.458l.565.49.917.797.455.396c3.174 2.76 6.029 5.256 6.029 5.256l-.032-14.177h8.317zm129.793.146l.037 16.226 14.622.02v5.597h-17.249c-1.591 0-2.95-.571-4.073-1.722-1.127-1.15-1.688-2.52-1.688-4.113l.018-16.008h8.333zm-65.382.033c1.568 0 2.914.562 4.04 1.676 1.058 1.043 1.617 2.296 1.683 3.763l.006.296-.018 16.062-8.234.013v-6.962H91.174v6.962h-8.25V90.68c0-1.595.562-2.946 1.69-4.06 1.055-1.043 2.304-1.602 3.748-1.668l.291-.007h20.452zm-29.692-.033v5.187H56.025v3.141h17.01c1.866.182 3.392.706 4.585 1.568 1.193.869 1.793 2.084 1.793 3.653v2.564c0 1.59-.616 2.943-1.848 4.059-1.221 1.116-2.69 1.671-4.394 1.671H47.094v-5.187l23.316.1v-3.65H53.364c-1.86-.272-3.368-.932-4.517-1.979-1.144-1.047-1.719-2.355-1.719-3.927v-1.468c0-1.57.592-2.91 1.771-4.023 1.185-1.113 2.638-1.676 4.366-1.676l26.148-.033zm62.903 5.484h-15.541v10.959h15.54V90.395zm-35.734-.022H91.174v4.777h15.408v-4.777zM185.84 84c2.852 0 5.16 2.368 5.16 5.28 0 2.885-2.308 5.223-5.16 5.223-2.835 0-5.126-2.338-5.126-5.224 0-2.911 2.306-5.279 5.126-5.279zm0 .878c-2.363 0-4.265 1.962-4.265 4.401 0 2.413 1.902 4.364 4.265 4.364 2.381 0 4.282-1.951 4.282-4.364 0-2.439-1.9-4.4-4.282-4.4zm.574 1.708c.917 0 1.488.598 1.488 1.547 0 .601-.167.903-.715 1.25.16.043.216.07.285.126.233.19.333.59.36 1.508l.016.332c.013.323.054.472.214.6v.14h-.844c-.101-.212-.145-.485-.145-.876v-.256a2.89 2.89 0 00-.144-.859c-.115-.245-.369-.362-.772-.362h-1.434v2.354h-.73v-5.504h2.42zm-.016.643h-1.675v1.863h1.565c.5 0 .87-.4.87-.93 0-.503-.357-.933-.76-.933z" fill="#FFF"/><g transform="translate(59)"><path d="M66.998 11H49.362c3.498 6.227 5.977 12.708 5.977 18.42 0 11.728-8.475 20.174-18.837 20.174-10.366 0-18.688-8.446-18.688-20.174 0-5.712 2.43-12.193 5.903-18.42H6.154A36.4 36.4 0 000 31.307c0 20.2 16.373 36.577 36.577 36.577 20.199 0 36.575-16.377 36.575-36.577a36.388 36.388 0 00-6.154-20.305" fill="#00815F"/><ellipse fill="#FFF" cx="30.5" cy="29.5" rx="5.5" ry="9.5"/><path d="M30.421 22.116c-2.362 0-4.274 3.193-4.274 7.126 0 3.933 1.912 7.126 4.274 7.126 2.36 0 4.276-3.193 4.276-7.126 0-3.933-1.917-7.126-4.276-7.126m21.567 7.426c0 9.61-6.964 16.533-15.475 16.533-8.515 0-15.353-6.923-15.353-16.533C21.16 19.93 29.547 7.651 36.577 0c6.858 7.651 15.411 19.93 15.411 29.542" fill="#FF7D2E"/></g></g></svg>